<svg width="40" height="40" viewBox="0 0 40 40" fill="none" xmlns="http://www.w3.org/2000/svg">
<circle cx="20" cy="20" r="19" fill="#7BBCB0" stroke="white" stroke-width="2"/>
<path d="M17.5302 25.7802L24.5 18.8105L21.1895 15.5L14.2198 22.4697C14.1238 22.5658 14.0556 22.686 14.0225 22.8177L13.25 26.75L17.1815 25.9775C17.3135 25.9445 17.4342 25.8762 17.5302 25.7802ZM26.75 16.5605C27.0312 16.2792 27.1892 15.8977 27.1892 15.5C27.1892 15.1022 27.0312 14.7208 26.75 14.4395L25.5605 13.25C25.2792 12.9688 24.8977 12.8108 24.5 12.8108C24.1023 12.8108 23.7208 12.9688 23.4395 13.25L22.25 14.4395L25.5605 17.75L26.75 16.5605Z" fill="white"/>
</svg>
